<?xml version="1.0" encoding="utf-8"?><!-- Uploaded to: SVG Repo, www.svgrepo.com, Generator: SVG Repo Mixer Tools -->
<svg fill="#000000" width="800px" height="800px" viewBox="0 0 24 24" id="cabinet" data-name="Flat Color" xmlns="http://www.w3.org/2000/svg" class="icon flat-color"><path id="secondary" d="M18,22a1,1,0,0,1-1-1V19a1,1,0,0,1,2,0v2A1,1,0,0,1,18,22ZM7,21V19a1,1,0,0,0-2,0v2a1,1,0,0,0,2,0Z" style="fill: rgb(44, 169, 188);"></path><path id="primary" d="M18,2H6A2,2,0,0,0,4,4V18a2,2,0,0,0,2,2H18a2,2,0,0,0,2-2V4A2,2,0,0,0,18,2Z" style="fill: rgb(0, 0, 0);"></path><path id="secondary-2" data-name="secondary" d="M13,17H11a1,1,0,0,1,0-2h2a1,1,0,0,1,0,2ZM14,6a1,1,0,0,0-1-1H11a1,1,0,0,0,0,2h2A1,1,0,0,0,14,6Zm6,4H4v2H20Z" style="fill: rgb(44, 169, 188);"></path></svg>